<?xml version="1.0" encoding="UTF-8"?>
<svg version="1.1" xmlns="http://www.w3.org/2000/svg" width="247" height="56">
<path d="M0 0 C81.51 0 163.02 0 247 0 C247 18.48 247 36.96 247 56 C165.49 56 83.98 56 0 56 C0 37.52 0 19.04 0 0 Z " fill="#020100" transform="translate(0,0)"/>
<path d="M0 0 C1.33333333 2 2.66666667 4 4 6 C7.10014929 7.88568694 7.10014929 7.88568694 10 9 C8.01474717 15.05079718 3.9765878 18.25074635 -1 22 C-4.31180728 23.59221504 -6.06699987 24.06509303 -9.6875 23.8125 C-12.21410675 22.9247733 -13.21787959 21.94413135 -15 20 C-15.99 19.67 -16.98 19.34 -18 19 C-18.99 21.475 -18.99 21.475 -20 24 C-21.32 24 -22.64 24 -24 24 C-23.25749403 19.91621717 -22.17076699 15.98060777 -21 12 C-20.34 12 -19.68 12 -19 12 C-18.814375 10.9171875 -18.814375 10.9171875 -18.625 9.8125 C-17.98719301 6.94236856 -17.43122565 4.57620618 -16 2 C-13.375 1.1875 -13.375 1.1875 -11 1 C-9.38262517 5.62107093 -8.14751403 10.2460133 -7 15 C-6.95101562 14.00097656 -6.90203125 13.00195312 -6.8515625 11.97265625 C-6.77679688 10.68230469 -6.70203125 9.39195313 -6.625 8.0625 C-6.55539063 6.77472656 -6.48578125 5.48695312 -6.4140625 4.16015625 C-6.27742188 3.11730469 -6.14078125 2.07445312 -6 1 C-4 0 -4 0 0 0 Z " fill="#D3AC11" transform="translate(191,14)"/>
<path d="M0 0 C3.64006627 0.69703397 4.64931457 1.68896481 6.9375 4.5625 C8.41201364 12.05433031 6.95711128 19.14683378 2.9375 25.5625 C0.31723098 28.94126795 -0.9298784 30.33135274 -5.125 31.1875 C-8.0625 30.5625 -8.0625 30.5625 -10.4375 28.75 C-13.1939114 23.34319303 -12.99772436 17.81327987 -11.33203125 12.0234375 C-9.05069086 6.45510463 -6.33954061 1.16440542 0 0 Z " fill="#DCB312" transform="translate(139.0625,8.4375)"/>
<path d="M0 0 C1.52734375 1.4609375 1.52734375 1.4609375 2.9375 3.375 C5.35010025 6.41377131 7.14430684 7.97937534 11 9 C9.40958642 15.56045604 3.34588597 19.43607602 -2 23 C-3.32 23 -4.64 23 -6 23 C-6 20.03 -6 17.06 -6 14 C-6.433125 15.27875 -6.86625 16.5575 -7.3125 17.875 C-8.47793261 21.31580104 -8.79851787 21.86567858 -12 24 C-17.27872377 24.54986706 -17.27872377 24.54986706 -19.66015625 22.734375 C-21.73831646 20.0442784 -21.46338445 17.86324967 -21.37109375 14.5625 C-20.72131625 10.07561539 -18.90936593 6.08297447 -17 2 C-15.68 2 -14.36 2 -13 2 C-13.13277344 2.54527344 -13.26554688 3.09054688 -13.40234375 3.65234375 C-14.67789247 9.09902987 -15.46963843 14.43120352 -16 20 C-14.68 20 -13.36 20 -12 20 C-11.92523438 18.80761719 -11.85046875 17.61523438 -11.7734375 16.38671875 C-11.6421115 14.82018717 -11.50921695 13.25378653 -11.375 11.6875 C-11.32988281 10.90181641 -11.28476563 10.11613281 -11.23828125 9.30664062 C-11.02752714 7.05540353 -10.7705995 5.12732848 -10 3 C-6.36300822 0.37996322 -4.49967196 0 0 0 Z " fill="#DBB312" transform="translate(222,14)"/>
<path d="M0 0 C1.32 0.33 2.64 0.66 4 1 C4.73455125 9.52079453 2.11008659 16.19146117 -1 24 C-4.68297866 23.3791378 -6.57688029 22.93325018 -9 20 C-10.485 22.475 -10.485 22.475 -12 25 C-13.32 24.67 -14.64 24.34 -16 24 C-16 16.41 -16 8.82 -16 1 C-13.525 1.495 -13.525 1.495 -11 2 C-10.67 3.65 -10.34 5.3 -10 7 C-9.34 6.01 -8.68 5.02 -8 4 C-6.35 4.33 -4.7 4.66 -3 5 C-2.67 5.99 -2.34 6.98 -2 8 C-1.34 5.36 -0.68 2.72 0 0 Z " fill="#E6BB13" transform="translate(164,15)"/>
<path d="M0 0 C2.875 1.5 2.875 1.5 5 3 C4.67 3.99 4.34 4.98 4 6 C0.65626525 5.44271087 -2.03312999 4.64826111 -5 3 C-4.278125 3.721875 -3.55625 4.44375 -2.8125 5.1875 C-0.20833333 7.79166667 2.39583333 10.39583333 5 13 C6.21693876 10.56612247 6.31959896 8.58161154 6.5625 5.875 C6.64628906 4.96492188 6.73007812 4.05484375 6.81640625 3.1171875 C6.90728516 2.06917969 6.90728516 2.06917969 7 1 C8.65 0.67 10.3 0.34 12 0 C12.0580476 3.27075883 12.09361165 6.54138524 12.125 9.8125 C12.14175781 10.74126953 12.15851562 11.67003906 12.17578125 12.62695312 C12.18222656 13.51962891 12.18867187 14.41230469 12.1953125 15.33203125 C12.20578613 16.15421143 12.21625977 16.9763916 12.22705078 17.82348633 C12 20 12 20 10 23 C8.68 23 7.36 23 6 23 C5.67 21.68 5.34 20.36 5 19 C4.484375 19.495 3.96875 19.99 3.4375 20.5 C-0.02429843 22.63033749 -1.9893409 22.61179546 -6 22 C-8.69396011 20.33330872 -11.01612959 18.47833051 -13 16 C-13 15.01 -13 14.02 -13 13 C-11.35 12.67 -9.7 12.34 -8 12 C-7.4225 12.78375 -6.845 13.5675 -6.25 14.375 C-4.17102363 16.80047244 -2.90959667 17.85694417 0 19 C-0.66432656 14.25629313 -3.57464247 12.65951624 -7.1875 9.87890625 C-9.36114808 7.62562021 -9.66341653 6.06606504 -10 3 C-6.68588466 -0.05918339 -4.46341716 -0.54654088 0 0 Z " fill="#DFB612" transform="translate(50,16)"/>
<path d="M0 0 C1.97192383 0.21655273 1.97192383 0.21655273 4 1 C5.12116865 3.73492622 5.94524622 6.22475161 6.6875 9.0625 C7.00557617 10.17141602 7.00557617 10.17141602 7.33007812 11.30273438 C8.68485706 16.18763129 9.47934207 20.95934464 10 26 C7.625 26.875 7.625 26.875 4 27 C0.46740994 25.29153011 -2.76096972 23.20842973 -6 21 C-6.32613281 21.5053125 -6.65226562 22.010625 -6.98828125 22.53125 C-7.64376953 23.50578125 -7.64376953 23.50578125 -8.3125 24.5 C-8.74175781 25.1496875 -9.17101562 25.799375 -9.61328125 26.46875 C-10.07089844 26.9740625 -10.52851563 27.479375 -11 28 C-11.99 28 -12.98 28 -14 28 C-13.37076399 23.18211832 -11.37117367 19.33076959 -9.1875 15.0625 C-8.84396484 14.37220703 -8.50042969 13.68191406 -8.14648438 12.97070312 C-3.22060584 3.22060584 -3.22060584 3.22060584 0 0 Z " fill="#E7BC13" transform="translate(26,10)"/>
<path d="M0 0 C0.33773437 1.18078125 0.67546875 2.3615625 1.0234375 3.578125 C1.47375566 5.13547529 1.92428771 6.69276373 2.375 8.25 C2.59671875 9.02730469 2.8184375 9.80460937 3.046875 10.60546875 C3.26601562 11.35957031 3.48515625 12.11367188 3.7109375 12.890625 C3.90993652 13.58188477 4.10893555 14.27314453 4.31396484 14.98535156 C4.96154923 17.05862583 4.96154923 17.05862583 6.10009766 19.08886719 C7.33188932 21.70483712 6.80694379 23.28573454 6 26 C5 27 5 27 2.75 27.3125 C-0.85338463 26.90302447 -2.26910164 25.3212636 -5 23 C-7.6794645 21.75983331 -7.6794645 21.75983331 -10 21 C-10.4125 21.969375 -10.825 22.93875 -11.25 23.9375 C-13 27 -13 27 -15.1875 27.875 C-15.785625 27.91625 -16.38375 27.9575 -17 28 C-16.08870966 22.67466541 -13.99502357 18.28514551 -11.6875 13.4375 C-11.29626953 12.58736328 -10.90503906 11.73722656 -10.50195312 10.86132812 C-5.36518382 0 -5.36518382 0 0 0 Z " fill="#59BE67" transform="translate(108,10)"/>
<path d="M0 0 C0.50534727 2.72827365 1.00443845 5.45744694 1.5 8.1875 C1.64308594 8.95642578 1.78617188 9.72535156 1.93359375 10.51757812 C2.63238715 14.39421773 3.19039017 18.041471 3 22 C-0.78527521 21.48847632 -2.44108688 20.79154158 -5 18 C-5.99 17.67 -6.98 17.34 -8 17 C-8.99 19.475 -8.99 19.475 -10 22 C-11.32 22 -12.64 22 -14 22 C-13.25749403 17.91621717 -12.17076699 13.98060777 -11 10 C-10.34 10 -9.68 10 -9 10 C-8.814375 8.9171875 -8.814375 8.9171875 -8.625 7.8125 C-8.0039987 5.01799416 -7.22183229 2.58740955 -6 0 C-3.50907189 -1.24546405 -2.58919267 -0.7767578 0 0 Z " fill="#E4BA13" transform="translate(181,16)"/>
<path d="M0 0 C1.32 0 2.64 0 4 0 C3.86722656 0.54527344 3.73445312 1.09054688 3.59765625 1.65234375 C2.32210753 7.09902987 1.53036157 12.43120352 1 18 C2.32 18 3.64 18 5 18 C5.66 12.39 6.32 6.78 7 1 C8.32 0.67 9.64 0.34 11 0 C11.33167569 7.37057084 11.33786595 13.32426811 8 20 C4.53076119 22.31282587 3.07794425 22.42478586 -1 22 C-2.99479872 20.47925933 -3.87401152 19.55503031 -4.43359375 17.08984375 C-4.44516302 10.71517578 -2.68567407 5.74302624 0 0 Z " fill="#E9BE13" transform="translate(205,16)"/>
<path d="M0 0 C6.63829787 0.89361702 6.63829787 0.89361702 9.125 1.625 C11.61043845 2.12208769 13.5657999 1.60855003 16 1 C14.25 4.875 14.25 4.875 12 6 C10.00039988 6.039992 7.99952758 6.04346799 6 6 C5.67 7.32 5.34 8.64 5 10 C7.97 10 10.94 10 14 10 C13.67 10.99 13.34 11.98 13 13 C10.36 13 7.72 13 5 13 C5.04125 14.11375 5.0825 15.2275 5.125 16.375 C5 20 5 20 3 22 C2.01 22 1.02 22 0 22 C-0.94450945 14.48751716 -0.94450945 7.51248284 0 0 Z " fill="#E3B913" transform="translate(64,16)"/>
<path d="M0 0 C4.55555556 0.55555556 4.55555556 0.55555556 6 2 C6.57978088 7.04694508 6.50864419 10.96454576 4.25 15.5625 C2 18 2 18 -0.125 19 C-0.74375 19 -1.3625 19 -2 19 C-4 17 -4 17 -4.265625 14.79296875 C-4.20211161 4.20211161 -4.20211161 4.20211161 0 0 Z " fill="#0A0800" transform="translate(135,15)"/>
<path d="M0 0 C1.32 0 2.64 0 4 0 C4.0580476 3.27075883 4.09361165 6.54138524 4.125 9.8125 C4.14175781 10.74126953 4.15851562 11.67003906 4.17578125 12.62695312 C4.18222656 13.51962891 4.18867187 14.41230469 4.1953125 15.33203125 C4.20578613 16.15421143 4.21625977 16.9763916 4.22705078 17.82348633 C4 20 4 20 2 23 C0.68 23 -0.64 23 -2 23 C-3.50230114 15.48849428 -2.48101825 8.47609898 -1 1 C-0.67 0.67 -0.34 0.34 0 0 Z " fill="#DCB312" transform="translate(58,16)"/>
<path d="M0 0 C0.61875 0.185625 1.2375 0.37125 1.875 0.5625 C4.04160178 1.23686176 4.04160178 1.23686176 6 0 C6.33 1.65 6.66 3.3 7 5 C5.35 5.66 3.7 6.32 2 7 C2 7.66 2 8.32 2 9 C1 10 0 11 -1 12 C-1.495 12.886875 -1.99 13.77375 -2.5 14.6875 C-2.995 15.450625 -3.49 16.21375 -4 17 C-4.99 17 -5.98 17 -7 17 C-6.37954537 12.76677156 -4.89476441 9.47709705 -2.9375 5.6875 C-2.38964844 4.61886719 -1.84179688 3.55023437 -1.27734375 2.44921875 C-0.64505859 1.23685547 -0.64505859 1.23685547 0 0 Z " fill="#469651" transform="translate(98,21)"/>
<path d="M0 0 C0.33 0 0.66 0 1 0 C0.85899143 2.27113803 0.71203245 4.54190725 0.5625 6.8125 C0.48128906 8.07707031 0.40007812 9.34164063 0.31640625 10.64453125 C0 14 0 14 -1 17 C-2.32 17 -3.64 17 -5 17 C-5.02712066 15.56260487 -5.04645067 14.12506137 -5.0625 12.6875 C-5.07410156 11.88699219 -5.08570313 11.08648437 -5.09765625 10.26171875 C-5 8 -5 8 -4 5 C-3.34 4.67 -2.68 4.34 -2 4 C-0.86649466 1.98330173 -0.86649466 1.98330173 0 0 Z " fill="#1A1502" transform="translate(211,17)"/>
<path d="M0 0 C1.11375 0.495 1.11375 0.495 2.25 1 C5.13883312 2.22782871 5.13883312 2.22782871 9 2 C9.66 1.34 10.32 0.68 11 0 C12 1 12 1 12.1875 4.3125 C12.01798052 7.64638318 11.75557129 9.25691987 10 12 C8.9171875 10.63875 8.9171875 10.63875 7.8125 9.25 C6.01868959 7.07692682 4.42395671 5.53916537 2.1875 3.75 C1.465625 3.1725 0.74375 2.595 0 2 C0 1.34 0 0.68 0 0 Z " fill="#151101" transform="translate(45,19)"/>
<path d="M0 0 C0.33 0 0.66 0 1 0 C1 7.59 1 15.18 1 23 C0.34 23 -0.32 23 -1 23 C-1.22786458 21.01432292 -1.45572917 19.02864583 -1.68359375 17.04296875 C-1.97170735 14.80603607 -1.97170735 14.80603607 -3 12 C-2.6953125 9.3359375 -2.6953125 9.3359375 -2.125 6.375 C-1.94195312 5.39273437 -1.75890625 4.41046875 -1.5703125 3.3984375 C-1 1 -1 1 0 0 Z " fill="#382D04" transform="translate(147,16)"/>
<path d="M0 0 C1.32 0 2.64 0 4 0 C3.86722656 0.556875 3.73445312 1.11375 3.59765625 1.6875 C2.41779695 6.7858701 1.56750461 11.79787441 1 17 C0.67 17 0.34 17 0 17 C-0.06058594 16.39671875 -0.12117187 15.7934375 -0.18359375 15.171875 C-0.30927734 13.97304688 -0.30927734 13.97304688 -0.4375 12.75 C-0.51871094 11.96109375 -0.59992188 11.1721875 -0.68359375 10.359375 C-0.94421505 8.01306899 -0.94421505 8.01306899 -1.59375 5.84375 C-2.1476528 3.32988343 -1.30157135 2.14376458 0 0 Z " fill="#D0AA11" transform="translate(205,16)"/>
<path d="M0 0 C1.1446875 0.1546875 1.1446875 0.1546875 2.3125 0.3125 C0.65656255 3.90036447 -1.31587691 7.15033588 -3.6875 10.3125 C-4.6775 10.3125 -5.6675 10.3125 -6.6875 10.3125 C-6.0259761 5.68183269 -5.25613325 0.61117828 0 0 Z " fill="#D1AB11" transform="translate(18.6875,27.6875)"/>
<path d="M0 0 C0.66 0 1.32 0 2 0 C2 7.26 2 14.52 2 22 C1.01 22 0.02 22 -1 22 C-0.67 14.74 -0.34 7.48 0 0 Z " fill="#271F03" transform="translate(62,16)"/>
<path d="M0 0 C3.73487777 0.4979837 5.81237635 0.87491756 9 3 C8.67 3.99 8.34 4.98 8 6 C4.65626525 5.44271087 1.96687001 4.64826111 -1 3 C-0.67 2.01 -0.34 1.02 0 0 Z " fill="#E8BD13" transform="translate(46,16)"/>
<path d="M0 0 C0.33 0.66 0.66 1.32 1 2 C1.66 2 2.32 2 3 2 C2.44894091 5.9492568 1.61064629 9.34920174 0 13 C-0.99 12.34 -1.98 11.68 -3 11 C-2.01 7.37 -1.02 3.74 0 0 Z " fill="#201A02" transform="translate(167,25)"/>
<path d="M0 0 C0.33 0 0.66 0 1 0 C1.05807043 3.10408807 1.09361914 6.2080364 1.125 9.3125 C1.15013672 10.63411133 1.15013672 10.63411133 1.17578125 11.98242188 C1.18222656 12.82998047 1.18867187 13.67753906 1.1953125 14.55078125 C1.21102295 15.72120972 1.21102295 15.72120972 1.22705078 16.9152832 C1 19 1 19 -1 22 C-2.51342598 14.43287011 -1.28289506 7.54893619 0 0 Z " fill="#A8890E" transform="translate(57,17)"/>
<path d="M0 0 C2.97 0.495 2.97 0.495 6 1 C6 2.98 6 4.96 6 7 C4.68 7 3.36 7 2 7 C1.67 6.01 1.34 5.02 1 4 C0.01 4.495 0.01 4.495 -1 5 C-0.67 3.35 -0.34 1.7 0 0 Z " fill="#9B7E0D" transform="translate(20,19)"/>
<path d="M0 0 C1.65 0.99 3.3 1.98 5 3 C4.1875 4.9375 4.1875 4.9375 3 7 C2.01 7.33 1.02 7.66 0 8 C0 5.36 0 2.72 0 0 Z " fill="#312804" transform="translate(222,22)"/>
<path d="M0 0 C0.99 0 1.98 0 3 0 C3.125 2.375 3.125 2.375 3 5 C2.34 5.66 1.68 6.32 1 7 C0.01 7 -0.98 7 -2 7 C-1.125 2.25 -1.125 2.25 0 0 Z " fill="#51AC5D" transform="translate(93,31)"/>
<path d="M0 0 C0.33 0 0.66 0 1 0 C1.05395478 1.62463842 1.09277195 3.24978541 1.125 4.875 C1.14820313 5.77992187 1.17140625 6.68484375 1.1953125 7.6171875 C1 10 1 10 -1 12 C-1.66 11.67 -2.32 11.34 -3 11 C-2.01 7.37 -1.02 3.74 0 0 Z " fill="#2F2603" transform="translate(216,25)"/>
<path d="M0 0 C1.32 0 2.64 0 4 0 C3.67 1.65 3.34 3.3 3 5 C1.68 5 0.36 5 -1 5 C-0.67 3.35 -0.34 1.7 0 0 Z " fill="#CCA611" transform="translate(58,9)"/>
<path d="M0 0 C0.99 0 1.98 0 3 0 C3 1.65 3 3.3 3 5 C1.68 5 0.36 5 -1 5 C-1.66 4.34 -2.32 3.68 -3 3 C-2.01 3 -1.02 3 0 3 C0 2.01 0 1.02 0 0 Z " fill="#D7AF12" transform="translate(210,31)"/>
<path d="M0 0 C2.475 0.99 2.475 0.99 5 2 C3.35 3.65 1.7 5.3 0 7 C0 4.69 0 2.38 0 0 Z " fill="#110E01" transform="translate(191,23)"/>
<path d="M0 0 C1.32 0.66 2.64 1.32 4 2 C3.67 2.99 3.34 3.98 3 5 C1.68 5 0.36 5 -1 5 C-0.67 3.35 -0.34 1.7 0 0 Z " fill="#C6A110" transform="translate(168,33)"/>
<path d="M0 0 C0.33 0.66 0.66 1.32 1 2 C1.99 2 2.98 2 4 2 C3.67 2.99 3.34 3.98 3 5 C1.02 5.33 -0.96 5.66 -3 6 C-2.01 4.02 -1.02 2.04 0 0 Z " fill="#C39F10" transform="translate(140,27)"/>
</svg>
